<svg version="1.1" id="Layer_1" xmlns="http://www.w3.org/2000/svg" xmlns:xlink="http://www.w3.org/1999/xlink" x="0px" y="0px"
	 width="100%" viewBox="0 0 696 696" enable-background="new 0 0 696 696" xml:space="preserve">
<path fill="#1E1E1E" opacity="1.000000" stroke="none" 
	d="
M374.000000,697.000000 
	C249.333328,697.000000 125.166664,697.000000 1.000000,697.000000 
	C1.000000,465.000000 1.000000,233.000000 1.000000,1.000000 
	C233.000000,1.000000 465.000000,1.000000 697.000000,1.000000 
	C697.000000,233.000000 697.000000,465.000000 697.000000,697.000000 
	C589.500000,697.000000 482.000000,697.000000 374.000000,697.000000 
M541.506836,459.500366 
	C541.506836,422.428070 541.506836,385.355774 541.506836,347.824158 
	C587.697449,347.824158 633.260803,347.824158 678.666870,347.824158 
	C678.666870,342.619751 678.666870,337.882904 678.666870,332.722168 
	C632.777954,332.722168 587.221069,332.722168 541.284424,332.722168 
	C541.284424,268.524963 541.284424,204.762207 541.284424,140.788696 
	C412.195740,140.788696 283.491516,140.788696 154.325226,140.788696 
	C154.325226,204.960693 154.325226,268.838593 154.325226,333.176208 
	C106.635185,333.176208 59.405518,333.176208 12.333206,333.176208 
	C12.333206,338.380524 12.333206,343.117401 12.333206,348.277832 
	C59.888821,348.277832 107.112183,348.277832 154.624756,348.277832 
	C154.624756,411.824127 154.624756,474.936096 154.624756,538.187012 
	C283.622803,538.187012 412.327057,538.187012 541.506775,538.187012 
	C541.506775,512.080078 541.506775,486.290253 541.506836,459.500366 
z"/>
<path fill="#FFFFFF" opacity="1.000000" stroke="none" 
	d="
M541.506836,460.000366 
	C541.506775,486.290253 541.506775,512.080078 541.506775,538.187012 
	C412.327057,538.187012 283.622803,538.187012 154.624756,538.187012 
	C154.624756,474.936096 154.624756,411.824127 154.624756,348.277832 
	C107.112183,348.277832 59.888821,348.277832 12.333206,348.277832 
	C12.333206,343.117401 12.333206,338.380524 12.333206,333.176208 
	C59.405518,333.176208 106.635185,333.176208 154.325226,333.176208 
	C154.325226,268.838593 154.325226,204.960693 154.325226,140.788696 
	C283.491516,140.788696 412.195740,140.788696 541.284424,140.788696 
	C541.284424,204.762207 541.284424,268.524963 541.284424,332.722168 
	C587.221069,332.722168 632.777954,332.722168 678.666870,332.722168 
	C678.666870,337.882904 678.666870,342.619751 678.666870,347.824158 
	C633.260803,347.824158 587.697449,347.824158 541.506836,347.824158 
	C541.506836,385.355774 541.506836,422.428070 541.506836,460.000366 
M271.500366,155.506805 
	C237.592224,155.506805 203.684082,155.506805 169.822296,155.506805 
	C169.822296,278.892029 169.822296,401.464233 169.822296,524.079285 
	C288.826660,524.079285 407.515076,524.079285 526.173096,524.079285 
	C526.173096,401.094879 526.173096,278.524628 526.173096,155.506744 
	C441.402679,155.506744 356.951538,155.506744 271.500366,155.506805 
z"/>
<path fill="#1E1E1E" opacity="1.000000" stroke="none" 
	d="
M272.000366,155.506775 
	C356.951538,155.506744 441.402679,155.506744 526.173096,155.506744 
	C526.173096,278.524628 526.173096,401.094879 526.173096,524.079285 
	C407.515076,524.079285 288.826660,524.079285 169.822296,524.079285 
	C169.822296,401.464233 169.822296,278.892029 169.822296,155.506805 
	C203.684082,155.506805 237.592224,155.506805 272.000366,155.506775 
M409.493225,415.499634 
	C409.493225,428.425842 409.493225,441.352051 409.493225,454.235657 
	C421.248871,454.235657 432.356506,454.235657 443.559998,454.235657 
	C443.559998,383.611145 443.559998,313.258179 443.559998,242.704010 
	C432.144226,242.704010 421.050415,242.704010 409.393860,242.704010 
	C409.393860,272.287872 409.393860,301.666779 409.393860,331.097809 
	C368.138733,331.097809 327.447815,331.097809 286.312500,331.097809 
	C286.312500,301.457031 286.312500,272.209259 286.312500,242.821228 
	C274.815247,242.821228 263.767029,242.821228 252.832016,242.821228 
	C252.832016,313.533386 252.832016,383.916992 252.832016,454.221985 
	C264.104431,454.221985 275.035797,454.221985 286.503174,454.221985 
	C286.503174,421.072876 286.503174,388.202576 286.503174,355.266785 
	C327.797882,355.266785 368.549896,355.266785 409.493286,355.266785 
	C409.493286,375.188568 409.493286,394.844086 409.493225,415.499634 
z"/>
<path fill="#FFFFFF" opacity="1.000000" stroke="none" 
	d="
M409.493256,414.999634 
	C409.493286,394.844086 409.493286,375.188568 409.493286,355.266785 
	C368.549896,355.266785 327.797882,355.266785 286.503174,355.266785 
	C286.503174,388.202576 286.503174,421.072876 286.503174,454.221985 
	C275.035797,454.221985 264.104431,454.221985 252.832016,454.221985 
	C252.832016,383.916992 252.832016,313.533386 252.832016,242.821228 
	C263.767029,242.821228 274.815247,242.821228 286.312500,242.821228 
	C286.312500,272.209259 286.312500,301.457031 286.312500,331.097809 
	C327.447815,331.097809 368.138733,331.097809 409.393860,331.097809 
	C409.393860,301.666779 409.393860,272.287872 409.393860,242.704010 
	C421.050415,242.704010 432.144226,242.704010 443.559998,242.704010 
	C443.559998,313.258179 443.559998,383.611145 443.559998,454.235657 
	C432.356506,454.235657 421.248871,454.235657 409.493225,454.235657 
	C409.493225,441.352051 409.493225,428.425842 409.493256,414.999634 
z"/>
</svg>