<svg version="1.1" id="Layer_1" xmlns="http://www.w3.org/2000/svg" xmlns:xlink="http://www.w3.org/1999/xlink" x="0px" y="0px"
	 width="100%" viewBox="0 0 743 495" enable-background="new 0 0 743 495" xml:space="preserve">
<path fill="#000000" opacity="1.000000" stroke="none" 
	d="
M470.000000,496.000000 
	C313.333344,496.000000 157.166672,496.000000 1.000000,496.000000 
	C1.000000,331.000000 1.000000,166.000000 1.000000,1.000000 
	C248.666672,1.000000 496.333344,1.000000 744.000000,1.000000 
	C744.000000,166.000000 744.000000,331.000000 744.000000,496.000000 
	C652.833313,496.000000 561.666687,496.000000 470.000000,496.000000 
M575.506592,335.500305 
	C575.506592,306.091797 575.506592,276.683289 575.506592,246.848450 
	C622.657654,246.848450 669.226013,246.848450 715.705444,246.848450 
	C715.705444,241.672546 715.705444,236.933411 715.705444,231.823303 
	C668.826416,231.823303 622.240784,231.823303 575.167175,231.823303 
	C575.167175,166.212265 575.167175,100.982430 575.167175,35.698383 
	C443.087952,35.698383 311.499878,35.698383 179.520294,35.698383 
	C179.520294,101.135933 179.520294,166.370209 179.520294,232.004242 
	C130.882187,232.004242 82.633507,232.004242 34.205589,232.004242 
	C34.205589,237.143753 34.205589,241.881439 34.205589,247.015762 
	C82.659676,247.015762 130.910248,247.015762 179.547272,247.015762 
	C179.547272,312.648651 179.547272,377.885529 179.547272,443.186157 
	C311.642181,443.186157 443.348145,443.186157 575.506470,443.186157 
	C575.506470,407.411896 575.506470,371.956116 575.506592,335.500305 
z"/>
<path fill="#FFFFFF" opacity="1.000000" stroke="none" 
	d="
M575.506531,336.000305 
	C575.506470,371.956116 575.506470,407.411896 575.506470,443.186157 
	C443.348145,443.186157 311.642181,443.186157 179.547272,443.186157 
	C179.547272,377.885529 179.547272,312.648651 179.547272,247.015762 
	C130.910248,247.015762 82.659676,247.015762 34.205589,247.015762 
	C34.205589,241.881439 34.205589,237.143753 34.205589,232.004242 
	C82.633507,232.004242 130.882187,232.004242 179.520294,232.004242 
	C179.520294,166.370209 179.520294,101.135933 179.520294,35.698383 
	C311.499878,35.698383 443.087952,35.698383 575.167175,35.698383 
	C575.167175,100.982430 575.167175,166.212265 575.167175,231.823303 
	C622.240784,231.823303 668.826416,231.823303 715.705444,231.823303 
	C715.705444,236.933411 715.705444,241.672546 715.705444,246.848450 
	C669.226013,246.848450 622.657654,246.848450 575.506592,246.848450 
	C575.506592,276.683289 575.506592,306.091797 575.506531,336.000305 
M287.499695,428.493408 
	C378.391541,428.493408 469.283356,428.493408 560.078552,428.493408 
	C560.078552,302.082764 560.078552,176.406082 560.078552,50.794136 
	C438.103851,50.794136 316.544220,50.794136 194.818420,50.794136 
	C194.818420,176.761932 194.818420,302.441956 194.818420,428.493469 
	C225.585709,428.493469 256.042694,428.493469 287.499695,428.493408 
z"/>
<path fill="#000000" opacity="1.000000" stroke="none" 
	d="
M286.999695,428.493439 
	C256.042694,428.493469 225.585709,428.493469 194.818420,428.493469 
	C194.818420,302.441956 194.818420,176.761932 194.818420,50.794136 
	C316.544220,50.794136 438.103851,50.794136 560.078552,50.794136 
	C560.078552,176.406082 560.078552,302.082764 560.078552,428.493408 
	C469.283356,428.493408 378.391541,428.493408 286.999695,428.493439 
M314.506561,173.500275 
	C314.506561,162.252579 314.506561,151.004898 314.506561,139.708298 
	C302.426666,139.708298 291.158691,139.708298 279.700592,139.708298 
	C279.700592,212.312958 279.700592,284.702728 279.700592,357.180511 
	C291.296875,357.180511 302.683167,357.180511 314.584534,357.180511 
	C314.584534,323.327789 314.584534,289.796631 314.584534,256.279236 
	C356.850830,256.279236 398.596893,256.279236 440.727539,256.279236 
	C440.727539,290.139130 440.727539,323.720917 440.727539,357.252380 
	C452.559723,357.252380 464.004364,357.252380 475.598053,357.252380 
	C475.598053,284.638458 475.598053,212.278976 475.598053,139.829529 
	C463.754700,139.829529 452.199738,139.829529 440.313171,139.829529 
	C440.313171,170.096405 440.313171,200.028366 440.313171,230.184906 
	C398.279053,230.184906 356.581757,230.184906 314.506531,230.184906 
	C314.506531,211.419128 314.506531,192.959717 314.506561,173.500275 
z"/>
<path fill="#FFFFFF" opacity="1.000000" stroke="none" 
	d="
M314.506531,174.000290 
	C314.506531,192.959717 314.506531,211.419128 314.506531,230.184906 
	C356.581757,230.184906 398.279053,230.184906 440.313171,230.184906 
	C440.313171,200.028366 440.313171,170.096405 440.313171,139.829529 
	C452.199738,139.829529 463.754700,139.829529 475.598053,139.829529 
	C475.598053,212.278976 475.598053,284.638458 475.598053,357.252380 
	C464.004364,357.252380 452.559723,357.252380 440.727539,357.252380 
	C440.727539,323.720917 440.727539,290.139130 440.727539,256.279236 
	C398.596893,256.279236 356.850830,256.279236 314.584534,256.279236 
	C314.584534,289.796631 314.584534,323.327789 314.584534,357.180511 
	C302.683167,357.180511 291.296875,357.180511 279.700592,357.180511 
	C279.700592,284.702728 279.700592,212.312958 279.700592,139.708298 
	C291.158691,139.708298 302.426666,139.708298 314.506561,139.708298 
	C314.506561,151.004898 314.506561,162.252579 314.506531,174.000290 
z"/>
</svg>